# xmcd
#
# Track frame offsets:
#	151
#	18680
#	33337
#	44774
#	56401
#	74553
#	86976
#	103189
#	118793
#	135786
#
# Disc length: 1999 seconds
#
# Revision: 0
# Processed by: cddbd v1.5.1PL0 Copyright (c) Steve Scherf et al.
# Submitted via: audiograbber 1.81.03
#
DISCID=9007cd0a
DTITLE=Neon Blue - Neon Blue
DYEAR=2005
DGENRE=Country
TTITLE0=Don't Know Why I Didn't Try
TTITLE1=All That I need
TTITLE2=Katie
TTITLE3=Where Do You Go
TTITLE4=On My Own
TTITLE5=Nadine
TTITLE6=I Will Be With You
TTITLE7=One Loney Night
TTITLE8=Thank God For the Simple Man
TTITLE9=Maple Sugar
EXTD=
EXTT0=
EXTT1=
EXTT2=
EXTT3=
EXTT4=
EXTT5=
EXTT6=
EXTT7=
EXTT8=
EXTT9=
PLAYORDER=
